<svg width="39" height="36" viewBox="0 0 39 36" fill="none" xmlns="http://www.w3.org/2000/svg">
<path d="M30.5359 16.5074H12.3847L20.3147 9.18738C20.9484 8.60238 20.9484 7.64238 20.3147 7.05738C20.0111 6.7765 19.5989 6.61865 19.169 6.61865C18.7392 6.61865 18.327 6.7765 18.0234 7.05738L7.31467 16.9424C6.68092 17.5274 6.68092 18.4724 7.31467 19.0574L18.0234 28.9424C18.6572 29.5274 19.6809 29.5274 20.3147 28.9424C20.9484 28.3574 20.9484 27.4124 20.3147 26.8274L12.3847 19.5074H30.5359C31.4297 19.5074 32.1609 18.8324 32.1609 18.0074C32.1609 17.1824 31.4297 16.5074 30.5359 16.5074Z" fill="#BBC8D4"/>
</svg>
